<svg data-v-fde0c5aa="" xmlns="http://www.w3.org/2000/svg" viewBox="0 0 300 300" class="iconLeft"><!----><defs data-v-fde0c5aa=""><!----></defs><rect data-v-fde0c5aa="" fill="#F5ECDB" x="0" y="0" width="300px" height="300px" class="logo-background-square"></rect><defs data-v-fde0c5aa=""><!----></defs><g data-v-fde0c5aa="" id="d0b489cf-bdaa-48ee-aab1-a6aae3a91a0b" fill="#B69E97" transform="matrix(3.1029815673828125,0,0,3.1029815673828125,83.7506432420522,133.43007760944664)"><path d="M5.53 0.53L5.53 0.53Q6.38 0.53 7.06 0.67Q7.74 0.81 8.02 0.91L8.02 0.91L8.02 1.72Q7.32 1.54 6.59 1.46Q5.85 1.37 5.15 1.44Q4.45 1.50 3.84 1.74Q3.23 1.99 2.77 2.48Q2.31 2.97 2.04 3.74Q1.78 4.51 1.78 5.61L1.78 5.61Q1.78 6.72 2.04 7.49Q2.31 8.26 2.77 8.75Q3.22 9.24 3.83 9.49Q4.44 9.74 5.13 9.81Q5.82 9.87 6.57 9.77Q7.31 9.67 8.02 9.49L8.02 9.49L8.02 10.28Q7.62 10.40 7.18 10.49L7.18 10.49Q6.82 10.56 6.38 10.62Q5.94 10.68 5.53 10.68L5.53 10.68Q4.82 10.68 3.99 10.47Q3.16 10.26 2.45 9.70Q1.74 9.13 1.27 8.14Q0.80 7.15 0.80 5.61L0.80 5.61Q0.80 4.07 1.27 3.09Q1.74 2.10 2.45 1.53Q3.16 0.97 3.99 0.75Q4.82 0.53 5.53 0.53ZM12.50 9.84L12.50 10.58Q12.50 10.60 12.20 10.64Q11.90 10.68 11.55 10.68L11.55 10.68Q11.20 10.68 10.99 10.58Q10.78 10.47 10.68 10.26Q10.57 10.05 10.54 9.75Q10.51 9.45 10.51 9.04L10.51 9.04L10.51 0.14L11.40 0.14L11.40 9.31Q11.40 9.60 11.50 9.76Q11.61 9.91 11.86 9.91L11.86 9.91Q12.00 9.91 12.19 9.89Q12.39 9.87 12.50 9.84L12.50 9.84ZM19.12 7.18L14.20 7.18Q14.18 7.95 14.43 8.55L14.43 8.55Q14.53 8.81 14.71 9.06Q14.88 9.31 15.13 9.50Q15.39 9.69 15.74 9.81Q16.10 9.93 16.58 9.93L16.58 9.93Q16.98 9.93 17.35 9.82Q17.71 9.72 17.99 9.59L17.99 9.59Q18.33 9.44 18.62 9.24L18.62 9.24L18.63 10.14Q18.63 10.14 18.48 10.23Q18.33 10.32 18.07 10.42Q17.81 10.51 17.45 10.60Q17.09 10.68 16.70 10.68L16.70 10.68Q15.57 10.68 14.88 10.32Q14.20 9.97 13.82 9.41Q13.44 8.85 13.32 8.15Q13.20 7.46 13.20 6.78L13.20 6.78Q13.20 6.13 13.40 5.49Q13.59 4.84 13.98 4.33Q14.36 3.82 14.94 3.51Q15.51 3.19 16.28 3.19L16.28 3.19Q17.14 3.19 17.69 3.54Q18.24 3.89 18.56 4.42Q18.87 4.96 19.00 5.59Q19.12 6.22 19.12 6.78L19.12 6.78L19.12 7.18ZM14.18 6.43L18.14 6.43Q18.14 5.96 18.04 5.52Q17.93 5.07 17.71 4.72Q17.49 4.37 17.13 4.16Q16.77 3.95 16.28 3.95L16.28 3.95Q15.79 3.95 15.41 4.17Q15.02 4.40 14.75 4.75Q14.48 5.10 14.33 5.54Q14.18 5.99 14.18 6.43L14.18 6.43ZM23.38 3.19L23.38 3.19Q23.51 3.19 23.73 3.21Q23.95 3.22 24.21 3.30Q24.47 3.37 24.74 3.54Q25.00 3.70 25.22 3.98Q25.44 4.26 25.58 4.68Q25.72 5.11 25.72 5.73L25.72 5.73L25.72 10.50L24.96 10.50L24.88 9.35Q24.88 9.35 24.75 9.56Q24.63 9.77 24.36 10.02Q24.09 10.28 23.68 10.48Q23.27 10.68 22.68 10.68L22.68 10.68Q21.52 10.68 20.85 10.12Q20.19 9.55 20.26 8.46L20.26 8.46Q20.33 7.22 21.42 6.66Q22.51 6.10 24.82 6.15L24.82 6.15L24.82 5.71Q24.82 5.00 24.61 4.63Q24.40 4.27 24.12 4.12Q23.84 3.98 23.58 3.97Q23.31 3.96 23.20 3.96L23.20 3.96Q22.68 3.96 22.29 4.06Q21.90 4.16 21.63 4.27L21.63 4.27Q21.31 4.41 21.08 4.56L21.08 4.56L21.08 3.68Q21.42 3.56 21.78 3.44L21.78 3.44Q22.11 3.35 22.52 3.27Q22.93 3.19 23.38 3.19ZM22.64 9.93L22.64 9.93Q23.41 9.93 23.85 9.65Q24.29 9.38 24.51 8.97Q24.72 8.55 24.77 8.09Q24.82 7.62 24.82 7.21L24.82 7.21L24.82 6.92L24.02 6.92Q23.74 6.92 23.27 6.96Q22.79 7.01 22.34 7.17Q21.88 7.34 21.55 7.64Q21.22 7.94 21.22 8.46L21.22 8.46Q21.22 9.24 21.62 9.58Q22.02 9.93 22.64 9.93ZM31.00 3.29L31.00 4.20Q30.86 4.19 30.73 4.16L30.73 4.16Q30.62 4.14 30.51 4.13Q30.41 4.12 30.37 4.12L30.37 4.12Q29.82 4.12 29.48 4.40Q29.13 4.68 28.93 5.10Q28.73 5.53 28.65 6.03Q28.57 6.54 28.57 6.99L28.57 6.99L28.57 10.50L27.69 10.50L27.69 3.36L28.38 3.36L28.53 4.75Q28.69 4.40 28.87 4.06Q29.06 3.72 29.34 3.51Q29.62 3.29 30.02 3.21Q30.42 3.14 31.00 3.29L31.00 3.29ZM32.48 0.71L34.38 0.71Q35.11 0.71 35.77 0.85Q36.43 0.98 36.92 1.30Q37.41 1.62 37.69 2.16Q37.98 2.69 37.98 3.50L37.98 3.50Q37.98 4.28 37.69 4.82Q37.41 5.35 36.93 5.67Q36.46 5.99 35.85 6.13Q35.24 6.27 34.59 6.27L34.59 6.27L33.45 6.27L33.45 10.50L32.48 10.50L32.48 0.71ZM33.45 5.43L34.57 5.43Q35.03 5.43 35.47 5.35Q35.91 5.26 36.25 5.05Q36.58 4.83 36.79 4.46Q37.00 4.09 37.00 3.50L37.00 3.50Q37.00 2.90 36.80 2.52Q36.60 2.14 36.25 1.93Q35.90 1.72 35.43 1.64Q34.96 1.57 34.44 1.57L34.44 1.57L33.45 1.57L33.45 5.43ZM42.04 3.19L42.04 3.19Q42.17 3.19 42.39 3.21Q42.62 3.22 42.88 3.30Q43.13 3.37 43.40 3.54Q43.67 3.70 43.88 3.98Q44.10 4.26 44.24 4.68Q44.38 5.11 44.38 5.73L44.38 5.73L44.38 10.50L43.62 10.50L43.54 9.35Q43.54 9.35 43.41 9.56Q43.29 9.77 43.02 10.02Q42.76 10.28 42.34 10.48Q41.93 10.68 41.34 10.68L41.34 10.68Q40.18 10.68 39.51 10.12Q38.85 9.55 38.92 8.46L38.92 8.46Q38.99 7.22 40.08 6.66Q41.17 6.10 43.48 6.15L43.48 6.15L43.48 5.71Q43.48 5.00 43.27 4.63Q43.06 4.27 42.78 4.12Q42.50 3.98 42.24 3.97Q41.97 3.96 41.86 3.96L41.86 3.96Q41.34 3.96 40.95 4.06Q40.56 4.16 40.29 4.27L40.29 4.27Q39.97 4.41 39.75 4.56L39.75 4.56L39.75 3.68Q40.08 3.56 40.45 3.44L40.45 3.44Q40.77 3.35 41.18 3.27Q41.59 3.19 42.04 3.19ZM41.30 9.93L41.30 9.93Q42.07 9.93 42.51 9.65Q42.95 9.38 43.17 8.97Q43.39 8.55 43.43 8.09Q43.48 7.62 43.48 7.21L43.48 7.21L43.48 6.92L42.69 6.92Q42.41 6.92 41.93 6.96Q41.45 7.01 41.00 7.17Q40.54 7.34 40.21 7.64Q39.89 7.94 39.89 8.46L39.89 8.46Q39.89 9.24 40.28 9.58Q40.68 9.93 41.30 9.93ZM49.57 10.50L49.57 10.50Q49.48 10.56 49.34 10.60L49.34 10.60Q49.22 10.63 49.04 10.65Q48.86 10.68 48.61 10.68L48.61 10.68Q48.06 10.68 47.74 10.51Q47.42 10.35 47.25 10.08Q47.08 9.81 47.03 9.48Q46.98 9.14 46.98 8.79L46.98 8.79L46.98 4.10L45.95 4.10L45.95 3.35L46.98 3.35L46.98 1.64L47.85 1.32L47.87 3.35L49.49 3.35L49.49 4.10L47.87 4.10L47.87 8.79Q47.87 8.89 47.89 9.08Q47.91 9.27 48.01 9.45Q48.10 9.63 48.29 9.77Q48.47 9.91 48.80 9.91L48.80 9.91L48.83 9.91Q49.11 9.91 49.31 9.84Q49.50 9.77 49.50 9.76L49.50 9.76L49.57 10.50ZM54.43 3.19L54.43 3.19Q55.09 3.19 55.54 3.40Q55.99 3.61 56.27 4.02Q56.55 4.42 56.67 5.02Q56.80 5.61 56.80 6.37L56.80 6.37L56.80 10.50L55.92 10.50L55.92 6.43Q55.92 5.15 55.57 4.56Q55.22 3.96 54.33 3.95L54.33 3.95Q53.77 3.95 53.34 4.15Q52.91 4.35 52.60 4.74Q52.30 5.12 52.15 5.67Q52.00 6.22 52.00 6.87L52.00 6.87L52.00 10.50L51.11 10.50L51.11 0L52.00 0L52.00 4.56Q52.33 3.93 52.96 3.56Q53.59 3.19 54.43 3.19Z"></path></g><defs data-v-fde0c5aa=""><!----></defs><g data-v-fde0c5aa="" id="ef2f296a-75ae-49cf-87e9-9ca108545878" stroke="none" fill="#B69E97" transform="matrix(0.559846043586731,0,0,0.559846043586731,28.964883256812872,121.3190493180276)"><path d="M63.564 91.17h-2v-7.475a1 1 0 01.684-.949c.584-.197 2.303-.999 2.513-2.05.351-1.751.354-4.263.354-4.288-.92-12.467 11.114-61.537 11.958-64.959V8.885c-29.098 1.386-50.451.309-55.362.015v2.549c.844 3.422 12.878 52.493 11.955 65.032v-.001c.003 0 .011 2.485.357 4.216.21 1.051 1.928 1.853 2.514 2.051.406.138.682.52.682.948v7.475h-2v-6.799c-1.019-.462-2.803-1.509-3.156-3.283-.389-1.942-.394-4.568-.394-4.68.915-12.477-11.8-64.077-11.929-64.597a.973.973 0 01-.029-.24V7.835c0-.277.115-.543.318-.732a.964.964 0 01.754-.265c.232.017 23.693 1.656 57.234-.001l.024-.002h.001c0 .003.02-.001.03 0l.035.001h.001a.99.99 0 01.646.269c.002 0 0 .003.003.002 0 .002.002.002.002.002l.001.001.001.001v.001h.001c.016.015.031.03.046.047l.001.001.001.002h.001a.997.997 0 01.261.674v3.748c-.001.086-.013.17-.034.249-.316 1.284-12.832 52.195-11.927 64.503.003.185-.002 2.811-.391 4.754-.354 1.774-2.139 2.82-3.157 3.282v6.798z"></path><path d="M49.392 95.626c-5.264 0-14.173-.938-14.173-4.456h2c.214.825 4.706 2.456 12.173 2.456s11.959-1.631 12.174-2.469l1.999.013c-.001 3.518-8.91 4.456-14.173 4.456zM48.802 86.368c-7.763 0-12.566-1.625-12.863-1.729l.655-1.89c.106.037 10.689 3.593 25.785-.027l.467 1.945c-5.319 1.274-10.07 1.701-14.044 1.701z"></path><path d="M48.902 91.467c-7.848 0-12.728-1.65-12.8-1.675l.328-.945c.106.037 10.802 3.644 26.065-.014l.232.973c-5.2 1.245-9.886 1.661-13.825 1.661zM20.711 10.571h57.362v2H20.711z"></path><path d="M54.398 95.177H44.386c-1.4 0-2.54-1.14-2.54-2.54v-2.48c0-1.4 1.14-2.54 2.54-2.54h10.013c1.4 0 2.54 1.14 2.54 2.54v2.48a2.544 2.544 0 01-2.541 2.54zm-10.012-6.561c-.85 0-1.54.69-1.54 1.54v2.48c0 .85.69 1.54 1.54 1.54h10.013c.85 0 1.54-.69 1.54-1.54v-2.48c0-.85-.69-1.54-1.54-1.54H44.386z"></path></g><!----></svg>